<?xml version="1.0" standalone="no"?>
<!DOCTYPE svg PUBLIC "-//W3C//DTD SVG 20010904//EN"
 "http://www.w3.org/TR/2001/REC-SVG-20010904/DTD/svg10.dtd">
<svg version="1.0" xmlns="http://www.w3.org/2000/svg"
 width="65.000000pt" height="65.000000pt" viewBox="0 0 65.000000 65.000000"
 preserveAspectRatio="xMidYMid meet">
<metadata>
Created by potrace 1.15, written by Peter Selinger 2001-2017
</metadata>
<g transform="translate(0.000000,65.000000) scale(0.100000,-0.100000)"
fill="#000000" stroke="none">
<path d="M406 360 l-59 -38 -54 36 c-61 40 -75 36 -76 -24 0 -22 -4 -44 -9
-50 -6 -8 -3 -11 8 -10 9 0 19 -5 21 -12 3 -8 -1 -10 -13 -5 -16 6 -17 5 -4
-9 10 -10 19 -13 26 -7 7 6 21 0 38 -16 15 -14 32 -23 37 -20 5 4 9 1 9 -4 0
-16 19 -13 36 4 9 8 23 14 32 14 15 -1 15 -2 0 -6 -10 -2 -18 -9 -18 -14 0 -4
11 -4 24 2 15 7 22 17 19 25 -3 9 0 12 9 9 8 -3 23 5 34 17 l19 23 -25 -20
-24 -20 18 29 c11 17 18 45 17 68 -1 39 -4 69 -5 67 -1 0 -28 -18 -60 -39z"/>
</g>
</svg>
